<?xml version="1.0" encoding="UTF-8" standalone="no" ?>
<!DOCTYPE svg PUBLIC "-//W3C//DTD SVG 1.1//EN" "http://www.w3.org/Graphics/SVG/1.1/DTD/svg11.dtd">
<svg xmlns="http://www.w3.org/2000/svg" xmlns:xlink="http://www.w3.org/1999/xlink" version="1.1" width="1080" height="1080" viewBox="0 0 1080 1080" xml:space="preserve">
<desc>Created with Fabric.js 5.2.4</desc>
<defs>
</defs>
<g transform="matrix(1 0 0 1 540 540)" id="e8356253-8730-4801-a1f7-571b803c5bb5"  >
<rect style="stroke: none; stroke-width: 1; stroke-dasharray: none; stroke-linecap: butt; stroke-dashoffset: 0; stroke-linejoin: miter; stroke-miterlimit: 4; fill: rgb(255,255,255); fill-rule: nonzero; opacity: 1; visibility: hidden;" vector-effect="non-scaling-stroke"  x="-540" y="-540" rx="0" ry="0" width="1080" height="1080" />
</g>
<g transform="matrix(1 0 0 1 540 540)" id="29a2340d-ab7e-41e4-a47d-74651e01260a"  >
</g>
<g transform="matrix(15.05 0 0 15.05 537.42 537.42)" id="cb0d602a-0089-42df-964b-08d7fe46fbf4"  >
<circle style="stroke: rgb(0,0,0); stroke-width: 0; stroke-dasharray: none; stroke-linecap: butt; stroke-dashoffset: 0; stroke-linejoin: miter; stroke-miterlimit: 4; fill: rgb(255,255,255); fill-rule: nonzero; opacity: 1;" vector-effect="non-scaling-stroke"  cx="0" cy="0" r="35" />
</g>
<g transform="matrix(1.29 0 0 1.26 540 540)" id="1e3ee1c1-5b03-431c-8203-261e07dd7147"  >
<path style="stroke: rgb(0,0,0); stroke-width: 0; stroke-dasharray: none; stroke-linecap: butt; stroke-dashoffset: 0; stroke-linejoin: miter; stroke-miterlimit: 4; fill: rgb(0,0,0); fill-rule: nonzero; opacity: 1;" vector-effect="non-scaling-stroke"  transform=" translate(-259.97, -217.5)" d="M 0 0 C 1.10382188 0.93728815 2.20636663 1.87608043 3.30838871 2.81548405 C 3.92250836 3.33810827 4.53662802 3.8607325 5.16935736 4.39919382 C 7.96011042 6.83956894 10.56807008 9.44467185 13.17553711 12.07788086 C 13.74892319 12.6527272 14.32230927 13.22757355 14.91307068 13.81983948 C 16.14562011 15.0561653 17.37701413 16.29364392 18.60734367 17.53217888 C 20.56097151 19.49869333 22.51781353 21.46195932 24.47547913 23.42445374 C 29.3355752 28.29784537 34.19020073 33.17667468 39.04498291 38.05535889 C 43.1552159 42.18541059 47.26755042 46.31334844 51.3826313 50.43857002 C 53.2989145 52.36127729 55.21213054 54.28699993 57.12522888 56.21287537 C 58.31502498 57.4063084 59.50496419 58.59959879 60.69506836 59.79272461 C 61.47699554 60.58240128 61.47699554 60.58240128 62.27471924 61.38803101 C 64.98230077 64.09598996 67.75100085 66.67071226 70.66029358 69.1612854 C 76.28815765 74.03958802 81.48614165 79.35459788 86.74023438 84.62670898 C 87.90374614 85.79050332 89.06747913 86.95407652 90.23141479 88.1174469 C 93.36944693 91.25519377 96.50440031 94.39600004 99.63878441 97.53739047 C 102.9227926 100.82767734 106.20965928 104.11510624 109.49621582 107.40284729 C 115.70992041 113.61965193 121.92107287 119.83899983 128.13129854 126.0592795 C 135.2055425 133.14472588 142.28264811 140.22731104 149.35998821 147.30966461 C 163.90983137 161.86994211 178.4561009 176.43378528 193 191 C 197.32039161 187.37384805 201.4612317 183.65999898 205.44116211 179.65649414 C 205.93651962 179.15967636 206.43187714 178.66285858 206.94224548 178.15098572 C 208.00455132 177.08491036 209.06570195 176.01768282 210.12577629 174.9493885 C 211.81054864 173.25169673 213.49856111 171.55728494 215.18739319 169.8636322 C 219.37969476 165.65805507 223.56651361 161.44703352 227.753479 157.23614502 C 231.30001897 153.66976059 234.84867788 150.10550951 238.40008736 146.54397392 C 240.05047055 144.88718234 241.69777459 143.22737249 243.34495544 141.56739807 C 248.72005017 136.16647277 254.15284951 130.89602598 260 126 C 264.25556298 127.65013765 267.09579796 130.82944222 270.23730469 134.01025391 C 270.85236374 134.6250209 271.46742279 135.2397879 272.10112 135.8731842 C 274.12948258 137.90293824 276.15067226 139.93968075 278.171875 141.9765625 C 279.57819697 143.38661525 280.98496164 144.79622658 282.39215088 146.20541382 C 286.09222618 149.91312042 289.78625567 153.62679424 293.47906494 157.34173584 C 297.24934253 161.13248259 301.02529761 164.91756457 304.80078125 168.703125 C 312.2060936 176.12987841 319.60503232 183.56294714 327 191 C 330.69117034 189.45343452 333.02252134 187.21361737 335.82519531 184.38598633 C 336.29085403 183.91901337 336.75651276 183.45204041 337.23628235 182.97091675 C 338.77154975 181.42917069 340.29971089 179.88056893 341.828125 178.33203125 C 342.90132203 177.25255666 343.97504061 176.17360037 345.04925537 175.09513855 C 347.87807027 172.25302657 350.70127474 169.40541203 353.52288818 166.55615234 C 358.02297351 162.01296976 362.52964243 157.47634588 367.03981781 152.94318199 C 368.60414669 151.36874526 370.16494682 149.79087469 371.72540283 148.21260071 C 375.70989228 144.19465271 379.67964346 140.19772825 383.98144531 136.51635742 C 388.92608751 132.28401421 393.46573254 127.64586275 398.04631042 123.02885437 C 399.69333883 121.36886941 401.34363952 119.71219765 402.99475098 118.05627441 C 406.49934639 114.54034349 409.99997555 111.02048047 413.5 107.5 C 417.56119008 103.41507415 421.62406294 99.33185107 425.69120789 95.25285339 C 427.30392583 93.63373229 428.91356218 92.01159216 430.52307129 90.38928223 C 435.18166621 85.70768236 439.88815341 81.16323116 444.90856934 76.86657715 C 449.12613825 73.10244674 453.0660966 69.04072384 457.04631042 65.02885437 C 458.69333883 63.36886941 460.34363952 61.71219765 461.99475098 60.05627441 C 465.49934639 56.54034349 468.99997555 53.02048047 472.5 49.5 C 476.56119008 45.41507415 480.62406294 41.33185107 484.69120789 37.25285339 C 486.30392583 35.63373229 487.91356218 34.01159216 489.52307129 32.38928223 C 494.31011927 27.57862544 499.12450234 22.85622428 504.30921936 18.46812439 C 507.34586438 15.83137039 510.12857725 12.93743739 512.9375 10.0625 C 514.93792506 8.01727259 516.95274717 5.99915291 519 4 C 519.33 4 519.66 4 520 4 C 520 146.23 520 288.46 520 435 C 515.84879363 432.92439681 513.15306034 430.42553964 509.94921875 427.1796875 C 509.37218704 426.60219757 508.79515533 426.02470764 508.20063782 425.42971802 C 506.98042338 424.20648633 505.76263649 422.98082895 504.54711914 421.75292969 C 502.7095724 419.89728973 500.86431462 418.04961463 499.01757812 416.203125 C 497.82765548 415.0082799 496.63818818 413.81298113 495.44921875 412.6171875 C 494.90730392 412.07415985 494.3653891 411.5311322 493.80705261 410.97164917 C 491.00729832 408.13800887 488.32283626 405.24526824 485.72651672 402.22354126 C 482.34870653 398.3500123 478.81493785 394.68534805 475.16601562 391.06835938 C 474.52274826 390.42655228 473.8794809 389.78474518 473.21672058 389.12348938 C 471.83417528 387.74471885 470.45047714 386.36710349 469.0657196 384.99055481 C 466.86809039 382.80581418 464.67370966 380.61785574 462.48010254 378.42907715 C 457.82288161 373.78322435 453.16173905 369.14131864 448.5 364.5 C 443.09340422 359.11708742 437.68847366 353.73252443 432.2877655 348.34370422 C 430.13681369 346.19918491 427.98284828 344.05772516 425.82873535 341.91638184 C 424.49700216 340.58828469 423.16541115 339.26004496 421.83398438 337.93164062 C 421.24364914 337.34647171 420.6533139 336.7613028 420.04508972 336.15840149 C 416.4438887 332.55765118 413.07144044 328.81620808 409.73989105 324.96573639 C 407.0045994 321.87539213 404.0960972 318.97279833 401.16601562 316.06835938 C 400.52274826 315.42655228 399.8794809 314.78474518 399.21672058 314.12348938 C 397.83417528 312.74471885 396.45047714 311.36710349 395.0657196 309.99055481 C 392.86809039 307.80581418 390.67370966 305.61785574 388.48010254 303.42907715 C 383.82288161 298.78322435 379.16173905 294.14131864 374.5 289.5 C 369.09340422 284.11708742 363.68847366 278.73252443 358.2877655 273.34370422 C 356.13681369 271.19918491 353.98284828 269.05772516 351.82873535 266.91638184 C 350.49700216 265.58828469 349.16541115 264.26004496 347.83398438 262.93164062 C 347.24364914 262.34647171 346.6533139 261.7613028 346.04508972 261.15840149 C 342.39104778 257.50481688 338.94414933 253.71982753 335.57785797 249.79927826 C 333.48826613 247.41645469 331.27457035 245.20564397 329 243 C 325.51968461 244.49180533 323.28810251 246.47427555 320.63378906 249.1550293 C 319.35160492 250.44228157 319.35160492 250.44228157 318.04351807 251.75553894 C 316.668461 253.15078545 316.668461 253.15078545 315.265625 254.57421875 C 314.30453017 255.54159274 313.34291253 256.50844756 312.38079834 257.47480774 C 309.84789622 260.0210013 307.32061109 262.57269121 304.79492188 265.1260376 C 300.76860335 269.19546343 296.73570786 273.2583395 292.69927216 277.31772804 C 291.30113744 278.72595009 289.90665347 280.13779378 288.51226807 281.54972839 C 284.0512655 286.04431926 279.54747213 290.40276549 274.72174072 294.50558472 C 271.84000141 297.00684127 269.17456981 299.71858146 266.5 302.4375 C 265.695625 303.24864258 265.695625 303.24864258 264.875 304.07617188 C 263.58095964 305.38176617 262.29011826 306.69052996 261 308 C 257.01912835 306.39822218 254.34506826 303.61769406 251.38671875 300.6171875 C 250.85407913 300.08408966 250.32143951 299.55099182 249.7726593 299.0017395 C 248.64660079 297.87266483 247.5229688 296.74116559 246.40161133 295.60742188 C 244.70891256 293.89664129 243.00852511 292.19382508 241.30664062 290.4921875 C 240.20786401 289.38848786 239.10954264 288.28433479 238.01171875 287.1796875 C 237.51355148 286.68040741 237.01538422 286.18112732 236.50212097 285.66671753 C 233.75562914 282.88425166 231.13398263 280.03100059 228.57714844 277.07275391 C 225.12862597 273.09702868 221.48969878 269.36094759 217.75390625 265.65625 C 217.09792953 265.00168823 216.44195282 264.34712646 215.76609802 263.67272949 C 213.70059855 261.61276177 211.63162405 259.55632634 209.5625 257.5 C 208.14885566 256.0913795 206.73544214 254.68252733 205.32226562 253.2734375 C 201.88416851 249.84627867 198.44295344 246.42227981 195 243 C 189.77688767 247.36679629 184.9038616 251.95805363 180.10366821 256.7828064 C 179.33885207 257.54747368 178.57403592 258.31214097 177.78604352 259.09998 C 175.23730519 261.64940993 172.69215378 264.20239025 170.14697266 266.75537109 C 168.31529628 268.58896755 166.48339143 270.42233578 164.65127563 272.25549316 C 160.71394725 276.19569983 156.77839694 280.13767511 152.84401321 284.08082199 C 147.15505031 289.78236332 141.46282877 295.48064253 135.76972239 301.17804618 C 126.53108195 310.42374329 117.29431333 319.67130782 108.05908203 328.92041016 C 107.5070485 329.47327149 106.95501498 330.02613283 106.38625316 330.59574755 C 102.46578711 334.52211677 98.54538748 338.44855232 94.625 342.375 C 90.13627945 346.87065438 85.64752435 351.36627426 81.15869141 355.86181641 C 80.32892634 356.69282366 80.32892634 356.69282366 79.48239835 357.54061894 C 70.27320708 366.76347506 61.06206789 375.98438332 51.84952581 385.20389235 C 46.166631 390.89127599 40.48552607 396.58043658 34.80669002 402.27187295 C 30.46501918 406.62293084 26.12084515 410.97148115 21.7757225 415.3190918 C 19.98854118 417.10815492 18.20222923 418.89808696 16.41682434 420.68892288 C 13.99163206 423.1212636 11.5634379 425.55056612 9.13442993 427.97909546 C 8.06038688 429.05853096 8.06038688 429.05853096 6.96464598 430.15977323 C 5.99626738 431.12609031 5.99626738 431.12609031 5.00832558 432.11192894 C 4.16705114 432.95458606 4.16705114 432.95458606 3.30878127 433.81426656 C 2 435 2 435 1 435 C 0.81285142 412.93764456 0.65019164 390.87513527 0.5 368.8125 C 0.49405146 367.94187015 0.48810292 367.07124029 0.48197412 366.17422771 C -0.06213052 286.2638744 -0.08587616 206.35422186 -0.06315851 126.44246 C -0.062498 124.11794611 -0.06185525 121.79343222 -0.06121445 119.46891832 C -0.05011557 79.64593948 -0.0297636 39.82296943 0 0 Z M 36 85 C 36 172.12 36 259.24 36 349 C 40.54719985 345.10240013 44.89169451 341.25422244 49.09960938 337.02978516 C 49.66484818 336.46629868 50.23008698 335.90281219 50.81245422 335.32225037 C 52.65872259 333.48034133 54.50135772 331.63484801 56.34375 329.7890625 C 57.63962478 328.49386256 58.93564786 327.19881099 60.23181152 325.90390015 C 62.93986012 323.19732059 65.64610556 320.48895444 68.35107422 317.77929688 C 71.80055902 314.32412103 75.25450682 310.87344712 78.70983124 307.42411232 C 81.38495641 304.7526191 84.05767254 302.07872589 86.72969055 299.40412521 C 88.00147832 298.13167516 89.27399603 296.8599542 90.54728699 295.58900833 C 98.22666161 287.99906164 98.22666161 287.99906164 105.48461914 280.01318359 C 110.81170329 273.76925063 116.77828994 268.09965594 122.58984375 262.3125 C 123.90285306 261.00135899 125.21563937 259.68999463 126.5282135 258.37841797 C 129.96019656 254.95022763 133.39517349 251.52505278 136.83081055 248.1005249 C 140.34542187 244.59619796 143.85715489 241.08898917 147.36914062 237.58203125 C 154.24330044 230.71855143 161.12063069 223.85825799 168 217 C 162.38496148 210.15256827 156.11977223 203.97879115 149.86010742 197.73071289 C 148.62912669 196.49837549 147.39835844 195.26582581 146.16778564 194.03308105 C 142.84199812 190.70275366 139.51307839 187.37557405 136.18343139 184.04910588 C 132.69771708 180.56592959 129.21445025 177.08030711 125.73078918 173.59507751 C 119.88783409 167.75030639 114.04278048 161.90764009 108.1965332 156.06616211 C 101.42920517 149.30429089 94.66550776 142.53880409 87.90365523 135.77145773 C 82.09733577 129.9606092 76.28908109 124.15170043 70.47918588 118.34442705 C 67.00902855 114.87583167 63.5395575 111.40655712 60.07182884 107.93553352 C 56.81797871 104.67880717 53.56171597 101.42451299 50.30352783 98.17212677 C 49.10493829 96.97486551 47.90721005 95.77674132 46.71038246 94.57771873 C 45.08433227 92.94896011 43.45527272 91.32327464 41.82536316 89.69837952 C 40.91228488 88.78567826 39.9992066 87.87297701 39.05845928 86.93261814 C 37.34908007 84.88592148 37.34908007 84.88592148 36 85 Z M 483 86 C 481.3675626 87.72437834 479.77495182 89.46835845 478.19255066 91.237854 C 472.29096115 97.75363713 466.1450211 103.99007709 459.91918945 110.19433594 C 458.75480491 111.3584375 457.59064231 112.52276111 456.42668152 113.68728638 C 453.30569904 116.8085525 450.18167166 119.92675398 447.05703378 123.04436016 C 443.7774336 126.31765392 440.50071802 129.59383287 437.22367859 132.86968994 C 431.03534392 139.05493258 424.84446759 145.23762458 418.65264434 151.4193747 C 411.59611257 158.46467876 404.54246415 165.51286662 397.48904097 172.56128263 C 382.9958707 187.04403679 368.49913366 201.52321614 354 216 C 354.94695967 217.11344822 355.89516554 218.22583664 356.84388733 219.33778381 C 357.63573221 220.26714799 357.63573221 220.26714799 358.44357395 221.21528721 C 360.50732902 223.58174083 362.6976453 225.79241718 364.93359375 227.99609375 C 365.83013672 228.88490234 366.72667969 229.77371094 367.65039062 230.68945312 C 369.50452992 232.51760589 371.35869647 234.345731 373.21289062 236.17382812 C 374.11072266 237.06392578 375.00855469 237.95402344 375.93359375 238.87109375 C 377.1410022 240.06109985 377.1410022 240.06109985 378.37280273 241.27514648 C 380.32232612 243.29713612 382.13967676 245.32071919 383.95532227 247.45532227 C 388.95615956 253.21453892 394.41515568 258.52567644 399.82310486 263.89826965 C 401.81911524 265.88137034 403.81185706 267.86770574 405.80383301 269.8548584 C 410.03307105 274.0727385 414.26623403 278.28666552 418.5 282.5 C 423.4109679 287.38726833 428.32025891 292.27619714 433.22532654 297.16938782 C 435.17684251 299.11448045 437.13137385 301.05650666 439.08605957 302.99841309 C 444.39809207 308.288715 449.64454244 313.56228516 454.50579834 319.27648926 C 457.11972023 322.29155917 459.94804386 325.09083412 462.7734375 327.90625 C 463.68725693 328.82150452 463.68725693 328.82150452 464.61953735 329.75524902 C 465.89047663 331.02686196 467.16265197 332.29724064 468.43603516 333.56640625 C 470.39474046 335.51968577 472.34796139 337.47833823 474.30078125 339.4375 C 475.54134558 340.67740468 476.78221945 341.91699974 478.0234375 343.15625 C 478.60878265 343.74361938 479.19412781 344.33098877 479.79721069 344.93615723 C 482.03434839 347.71416985 482.03434839 347.71416985 485 349 C 485.02379458 325.93080527 485.04119984 302.86161267 485.05181217 279.79240799 C 485.05687959 269.07107369 485.06375698 258.34974726 485.07543945 247.62841797 C 485.08872288 235.19498756 485.09687124 222.76156279 485.09765625 210.328125 C 485.09772061 209.30876925 485.09778497 208.28941349 485.09785128 207.23916817 C 485.09634585 166.8203116 484.68217127 126.4127775 484 86 C 483.67 86 483.34 86 483 86 Z M 258.24093628 177.51855469 C 257.18170456 178.58444824 257.18170456 178.58444824 256.10107422 179.671875 C 255.3003952 180.47270508 254.49971619 181.27353516 253.67477417 182.09863281 C 252.81014557 182.97358398 251.94551697 183.84853516 251.0546875 184.75 C 250.1696756 185.6378418 249.2846637 186.52568359 248.37283325 187.44042969 C 246.01833742 189.80424682 243.66826592 192.17229654 241.32019043 194.54248047 C 238.92410848 196.9590037 236.52237039 199.36989058 234.12109375 201.78125 C 229.40881052 206.51563465 224.70227613 211.25567712 220 216 C 221.92127842 220.14263481 224.69605427 223.15152386 227.8125 226.4375 C 228.40764404 227.07131592 229.00278809 227.70513184 229.6159668 228.3581543 C 236.30903559 235.42730421 243.22597786 242.2786528 250.15356445 249.11694336 C 251.027146 249.98198486 251.90072754 250.84702637 252.80078125 251.73828125 C 253.58622314 252.51212158 254.37166504 253.28596191 255.1809082 254.08325195 C 257 256 257 256 258 258 C 260.90328538 256.68773892 262.95571228 255.28744938 265.1887207 253.02246094 C 265.78646805 252.42133484 266.38421539 251.82020874 267.00007629 251.2008667 C 267.63555893 250.55192444 268.27104156 249.90298218 268.92578125 249.234375 C 269.59159714 248.56335754 270.25741302 247.89234009 270.94340515 247.20098877 C 273.07124553 245.05535685 275.19229698 242.903177 277.3125 240.75 C 279.42280294 238.61193945 281.53459168 236.47540317 283.64945984 234.34185791 C 284.96351872 233.01569714 286.27489775 231.68687349 287.58308411 230.35491943 C 291.55391685 226.34137753 295.66829542 222.62221024 300 219 C 298.52330947 215.91885122 296.99454498 213.71433419 294.62109375 211.2421875 C 293.95166748 210.53924561 293.28224121 209.83630371 292.5925293 209.11206055 C 291.88136963 208.37383057 291.17020996 207.63560059 290.4375 206.875 C 288.97316667 205.33799343 287.50961929 203.80023767 286.046875 202.26171875 C 285.34369141 201.52356934 284.64050781 200.78541992 283.91601562 200.02490234 C 281.63406372 197.61326764 279.40024997 195.16271119 277.1875 192.6875 C 276.51976562 191.94113281 275.85203125 191.19476563 275.1640625 190.42578125 C 273.97433466 189.09216935 272.78488238 187.75831078 271.59667969 186.42333984 C 270.0906081 184.73570242 268.57713676 183.05495038 267.0625 181.375 C 266.58901123 180.84092529 266.11552246 180.30685059 265.62768555 179.7565918 C 264.45948878 178.46603072 263.23406059 177.22773208 262 176 C 259.86500993 175.78217903 259.86500993 175.78217903 258.24093628 177.51855469 Z" stroke-linecap="round" />
</g>
</svg>